<svg id="visual" viewBox="0 0 900 600" width="900" height="600" xmlns="http://www.w3.org/2000/svg" xmlns:xlink="http://www.w3.org/1999/xlink" version="1.1"><path d="M0 97L100 31L200 43L300 91L400 61L500 67L600 61L700 31L800 61L900 97L900 0L800 0L700 0L600 0L500 0L400 0L300 0L200 0L100 0L0 0Z" fill="#8e82dc"></path><path d="M0 151L100 61L200 55L300 139L400 79L500 97L600 79L700 73L800 115L900 109L900 95L800 59L700 29L600 59L500 65L400 59L300 89L200 41L100 29L0 95Z" fill="#8679da"></path><path d="M0 181L100 145L200 91L300 181L400 151L500 151L600 181L700 187L800 217L900 193L900 107L800 113L700 71L600 77L500 95L400 77L300 137L200 53L100 59L0 149Z" fill="#7e6fd8"></path><path d="M0 199L100 229L200 145L300 241L400 223L500 175L600 265L700 211L800 259L900 235L900 191L800 215L700 185L600 179L500 149L400 149L300 179L200 89L100 143L0 179Z" fill="#7566d6"></path><path d="M0 223L100 247L200 169L300 259L400 271L500 235L600 289L700 259L800 331L900 289L900 233L800 257L700 209L600 263L500 173L400 221L300 239L200 143L100 227L0 197Z" fill="#6d5cd4"></path><path d="M0 289L100 481L200 337L300 457L400 439L500 463L600 343L700 325L800 415L900 403L900 287L800 329L700 257L600 287L500 233L400 269L300 257L200 167L100 245L0 221Z" fill="#6452d1"></path><path d="M0 523L100 559L200 523L300 523L400 505L500 523L600 529L700 547L800 547L900 517L900 401L800 413L700 323L600 341L500 461L400 437L300 455L200 335L100 479L0 287Z" fill="#5b49cf"></path><path d="M0 577L100 577L200 547L300 571L400 565L500 577L600 547L700 571L800 577L900 583L900 515L800 545L700 545L600 527L500 521L400 503L300 521L200 521L100 557L0 521Z" fill="#523ecc"></path><path d="M0 601L100 601L200 601L300 601L400 601L500 601L600 601L700 601L800 601L900 601L900 581L800 575L700 569L600 545L500 575L400 563L300 569L200 545L100 575L0 575Z" fill="#4834c9"></path></svg>